<?xml version="1.0" encoding="UTF-8" standalone="no"?>
<svg
   viewBox="0 0 468.86 56.300001"
   fill="#000000"
   data-color-origin="#000000"
   data-color-type="fill"
   version="1.1"
   id="svg1"
   width="468.85999"
   height="56.299999"
   xmlns="http://www.w3.org/2000/svg"
   xmlns:svg="http://www.w3.org/2000/svg">
  <defs
     id="defs1" />
  <path
     fill="#7d552f"
     d="m 52.06,1.29 h 3.31 v 54 H 52.99 V 4.1 L 27.5,56.3 2.16,4.1 V 55.29 H 0 v -54 H 3.46 L 27.72,51.12 Z M 81,33.69 v 21.6 H 78.62 V 33.69 L 62.21,1.29 H 64.8 L 79.99,31.17 94.9,1.29 h 2.16 z m 87.48,-1.08 V 1.29 h 2.38 v 54 h -2.38 V 34.7 h -37.01 v 20.59 h -2.37 v -54 h 2.37 V 32.61 Z M 207,56.23 q -11.16,0 -19.33,-8.42 -8.17,-8.43 -8.17,-19.7 0,-11.26 8.28,-19.51 8.28,-8.24 19.87,-8.24 11.59,0 19.8,8.21 8.21,8.2 8.21,19.54 0,11.34 -8.14,19.73 -8.14,8.39 -19.44,8.39 v 0 z m 26.28,-27.97 q 0,-10.62 -7.52,-18.22 -7.53,-7.59 -18.15,-7.59 -10.62,0 -18.18,7.59 -7.56,7.6 -7.56,18.22 0,10.62 7.56,18.25 7.56,7.63 18.15,7.63 10.58,0 18.14,-7.63 7.56,-7.63 7.56,-18.25 z M 296.35,1.29 h 3.31 v 54 h -2.37 V 4.1 L 271.8,56.3 246.46,4.1 v 51.19 h -2.16 v -54 h 3.45 l 24.27,49.83 z m 14.11,54 v -54 h 19.37 v 2.09 h -16.99 v 29.38 h 14.18 v 2.09 h -14.18 v 18.36 h 16.99 v 2.08 z m 48.53,0 26.93,-55.29 27,55.29 H 410.4 L 400.18,34.7 H 371.3 L 361.22,55.29 Z M 399.31,32.61 385.7,4.97 372.24,32.61 Z m 21.1,22.68 v -54 h 2.37 q 7.49,0 12.75,5.15 5.25,5.15 5.25,12.13 0,6.99 -5.43,12.03 -5.44,5.04 -11.99,5.04 v 0 h -0.58 v 19.65 z m 2.37,-51.91 v 30.24 h 0.58 q 6.05,0 10.55,-4.46 4.5,-4.47 4.5,-10.59 0,-6.12 -4.57,-10.65 -4.58,-4.54 -10.48,-4.54 v 0 z m 25.71,51.91 v -54 h 2.37 q 7.49,0 12.75,5.15 5.25,5.15 5.25,12.13 0,6.99 -5.43,12.03 -5.44,5.04 -11.99,5.04 v 0 h -0.58 v 19.65 z m 2.37,-51.91 v 30.24 h 0.58 q 6.05,0 10.55,-4.46 4.5,-4.47 4.5,-10.59 0,-6.12 -4.57,-10.65 -4.58,-4.54 -10.48,-4.54 v 0 z"
     class=" bl-fill-0"
     data-color-origin="#7d552f"
     data-color-type="fill"
     id="path1" />
</svg>
